<svg xmlns="http://www.w3.org/2000/svg" width="521" height="165" viewBox="0 0 521 165" version="1.1"><path d="M 312 93 L 312 120 315.500 120 L 319 120 319 105.589 L 319 91.178 323.316 89.089 C 328.922 86.375, 335.336 86.336, 338 89 C 339.816 90.816, 340 92.333, 340 105.500 L 340 120 344 120 L 348 120 347.994 106.750 C 347.986 85.890, 345.911 81.908, 334.682 81.192 C 328.914 80.825, 326.139 81.492, 319.750 84.781 C 319.337 84.993, 319 80.854, 319 75.583 L 319 66 315.500 66 L 312 66 312 93 M 66.239 68.335 C 57.392 71.543, 52.178 79.612, 51.280 91.482 C 50.193 105.849, 56.418 116.897, 67.319 119.949 C 73.456 121.668, 87.403 120.926, 91.750 118.650 L 95 116.949 95 104.474 L 95 92 85 92 L 75 92 75 94.500 C 75 96.929, 75.200 97, 82 97 L 89 97 89 104.941 C 89 109.905, 88.563 113.152, 87.835 113.602 C 87.195 113.998, 83.445 114.529, 79.503 114.782 C 65.010 115.712, 58.668 109.693, 58.659 95 C 58.657 90.875, 59.210 85.835, 59.888 83.800 C 61.448 79.123, 66.878 74.301, 71.578 73.419 C 75.109 72.757, 83.726 73.334, 89.250 74.602 C 91.779 75.182, 92 74.992, 92 72.235 C 92 69.523, 91.577 69.131, 87.557 68.119 C 81.880 66.689, 70.457 66.805, 66.239 68.335 M 276.637 68.465 C 271.905 70.152, 267.521 74.193, 264.663 79.500 C 262.850 82.868, 262.509 85.161, 262.505 94.022 C 262.501 103.347, 262.790 105.108, 265.055 109.513 C 266.871 113.045, 269.017 115.352, 272.475 117.491 C 277.041 120.316, 277.957 120.500, 287.420 120.500 C 300.795 120.500, 303 119.849, 303 115.901 C 303 112.945, 302.889 112.869, 299.750 113.671 C 297.962 114.127, 292.595 114.500, 287.822 114.500 C 280.562 114.500, 278.684 114.156, 276.322 112.395 C 271.002 108.429, 269.496 104.459, 269.533 94.500 C 269.571 84.177, 271.332 79.324, 276.331 75.764 C 280.367 72.891, 289.845 72.218, 296.950 74.301 C 301.257 75.563, 302.220 75.592, 302.651 74.468 C 303.714 71.698, 302.390 69.471, 298.988 68.306 C 294.251 66.685, 281.373 66.777, 276.637 68.465 M 404 70 C 404 72.833, 404.222 73, 408 73 C 411.778 73, 412 72.833, 412 70 C 412 67.167, 411.778 67, 408 67 C 404.222 67, 404 67.167, 404 70 M 117.500 83.519 C 114.200 84.879, 111.388 85.993, 111.250 85.995 C 111.112 85.998, 111 85.100, 111 84 C 111 82.381, 110.333 82, 107.500 82 L 104 82 104 101 L 104 120 108 120 L 112 120 112 106.026 L 112 92.051 114.750 90.635 C 116.263 89.857, 119.412 88.649, 121.750 87.951 C 125.455 86.846, 126 86.319, 126 83.842 C 126 80.382, 125.191 80.351, 117.500 83.519 M 138.309 82.947 C 128.613 87.349, 125.873 105.754, 133.555 114.883 C 137.382 119.431, 143.548 121.356, 152.454 120.785 C 156.564 120.521, 160.641 119.713, 161.512 118.990 C 163.480 117.357, 163.055 113.330, 160.976 113.917 C 160.164 114.147, 156.304 114.530, 152.397 114.769 C 142.433 115.379, 137 112.308, 137 106.066 C 137 104.076, 137.517 104, 151.113 104 L 165.226 104 164.843 97.228 C 164.400 89.383, 162.043 85.197, 156.619 82.623 C 152.018 80.440, 143.499 80.590, 138.309 82.947 M 181.309 82.947 C 171.613 87.349, 168.873 105.754, 176.555 114.883 C 180.382 119.431, 186.548 121.356, 195.454 120.785 C 199.564 120.521, 203.641 119.713, 204.512 118.990 C 206.480 117.357, 206.055 113.330, 203.976 113.917 C 203.164 114.147, 199.304 114.530, 195.397 114.769 C 185.433 115.379, 180 112.308, 180 106.066 C 180 104.076, 180.517 104, 194.113 104 L 208.226 104 207.843 97.228 C 207.400 89.383, 205.043 85.197, 199.619 82.623 C 195.018 80.440, 186.499 80.590, 181.309 82.947 M 228.669 83.364 C 224.292 85.580, 224 85.611, 224 83.864 C 224 82.400, 223.248 82, 220.500 82 L 217 82 217 101 L 217 120 221 120 L 225 120 225 105.523 C 225 91.355, 225.051 91.013, 227.394 89.477 C 230.477 87.457, 235.958 86.582, 240.356 87.407 C 245.121 88.301, 246 91.377, 246 107.149 L 246 120 249.500 120 L 253 120 253 105.468 C 253 89.035, 251.986 85.078, 247.128 82.566 C 242.548 80.198, 234.213 80.558, 228.669 83.364 M 362.250 82.119 C 359.490 82.916, 359 83.522, 359 86.136 C 359 88.683, 359.302 89.086, 360.750 88.474 C 361.712 88.067, 366.100 87.531, 370.500 87.282 C 379.866 86.753, 381.749 87.678, 382.654 93.253 L 383.262 97 374.651 97 C 360.473 97, 355 100.544, 355 109.728 C 355 116.883, 360.216 121.015, 369.200 120.978 C 372.223 120.966, 376.294 120.142, 378.675 119.061 C 382.159 117.478, 382.939 117.399, 383.393 118.583 C 383.697 119.374, 385.275 120, 386.969 120 L 390 120 389.998 105.750 C 389.997 89.354, 388.882 85.690, 383 82.752 C 379.136 80.821, 367.928 80.479, 362.250 82.119 M 434.539 82.936 C 431.105 84.725, 430.468 84.800, 429.740 83.500 C 429.278 82.675, 427.573 82, 425.950 82 L 423 82 423 101 L 423 120 426.500 120 L 430 120 430 105.520 L 430 91.041 433.960 89.020 C 439.218 86.338, 446.328 86.328, 449 89 C 450.816 90.816, 451 92.333, 451 105.500 L 451 120 455 120 L 459 120 458.994 106.750 C 458.986 85.618, 456.933 81.818, 445.201 81.216 C 439.908 80.945, 437.668 81.306, 434.539 82.936 M 399 85 C 399 87.667, 399.333 88, 402 88 L 405 88 405 104 L 405 120 408.500 120 L 412 120 412 101 L 412 82 405.500 82 L 399 82 399 85 M 141.364 88.170 C 138.899 89.363, 137 93.008, 137 96.547 C 137 98.995, 137.020 99, 147.500 99 L 158 99 158 95.073 C 158 89.760, 154.558 86.973, 148.115 87.068 C 145.577 87.105, 142.539 87.601, 141.364 88.170 M 184.364 88.170 C 181.899 89.363, 180 93.008, 180 96.547 C 180 98.995, 180.020 99, 190.500 99 L 201 99 201 95.073 C 201 89.760, 197.558 86.973, 191.115 87.068 C 188.577 87.105, 185.539 87.601, 184.364 88.170 M 365 104.288 C 363.268 105.159, 362.405 106.519, 362.191 108.711 C 361.749 113.244, 365.304 115.417, 372.091 114.765 C 378.810 114.120, 382.407 111.397, 382.810 106.651 L 383.121 103 375.310 103.015 C 371.015 103.023, 366.375 103.596, 365 104.288" stroke="none" fill="#f4f6f5" fill-rule="evenodd"/><path d="M 0 82.502 L 0 165.004 260.750 164.752 L 521.500 164.500 521.756 82.250 L 522.012 -0 261.006 -0 L 0 0 0 82.502 M 0.477 83 C 0.477 128.375, 0.600 146.938, 0.750 124.250 C 0.900 101.563, 0.900 64.438, 0.750 41.750 C 0.600 19.063, 0.477 37.625, 0.477 83 M 312 93 L 312 120 315.500 120 L 319 120 319 105.589 L 319 91.178 323.316 89.089 C 328.922 86.375, 335.336 86.336, 338 89 C 339.816 90.816, 340 92.333, 340 105.500 L 340 120 344 120 L 348 120 347.994 106.750 C 347.986 85.890, 345.911 81.908, 334.682 81.192 C 328.914 80.825, 326.139 81.492, 319.750 84.781 C 319.337 84.993, 319 80.854, 319 75.583 L 319 66 315.500 66 L 312 66 312 93 M 66.239 68.335 C 57.392 71.543, 52.178 79.612, 51.280 91.482 C 50.193 105.849, 56.418 116.897, 67.319 119.949 C 73.456 121.668, 87.403 120.926, 91.750 118.650 L 95 116.949 95 104.474 L 95 92 85 92 L 75 92 75 94.500 C 75 96.929, 75.200 97, 82 97 L 89 97 89 104.941 C 89 109.905, 88.563 113.152, 87.835 113.602 C 87.195 113.998, 83.445 114.529, 79.503 114.782 C 65.010 115.712, 58.668 109.693, 58.659 95 C 58.657 90.875, 59.210 85.835, 59.888 83.800 C 61.448 79.123, 66.878 74.301, 71.578 73.419 C 75.109 72.757, 83.726 73.334, 89.250 74.602 C 91.779 75.182, 92 74.992, 92 72.235 C 92 69.523, 91.577 69.131, 87.557 68.119 C 81.880 66.689, 70.457 66.805, 66.239 68.335 M 276.637 68.465 C 271.905 70.152, 267.521 74.193, 264.663 79.500 C 262.850 82.868, 262.509 85.161, 262.505 94.022 C 262.501 103.347, 262.790 105.108, 265.055 109.513 C 266.871 113.045, 269.017 115.352, 272.475 117.491 C 277.041 120.316, 277.957 120.500, 287.420 120.500 C 300.795 120.500, 303 119.849, 303 115.901 C 303 112.945, 302.889 112.869, 299.750 113.671 C 297.962 114.127, 292.595 114.500, 287.822 114.500 C 280.562 114.500, 278.684 114.156, 276.322 112.395 C 271.002 108.429, 269.496 104.459, 269.533 94.500 C 269.571 84.177, 271.332 79.324, 276.331 75.764 C 280.367 72.891, 289.845 72.218, 296.950 74.301 C 301.257 75.563, 302.220 75.592, 302.651 74.468 C 303.714 71.698, 302.390 69.471, 298.988 68.306 C 294.251 66.685, 281.373 66.777, 276.637 68.465 M 404 70 C 404 72.833, 404.222 73, 408 73 C 411.778 73, 412 72.833, 412 70 C 412 67.167, 411.778 67, 408 67 C 404.222 67, 404 67.167, 404 70 M 117.500 83.519 C 114.200 84.879, 111.388 85.993, 111.250 85.995 C 111.112 85.998, 111 85.100, 111 84 C 111 82.381, 110.333 82, 107.500 82 L 104 82 104 101 L 104 120 108 120 L 112 120 112 106.026 L 112 92.051 114.750 90.635 C 116.263 89.857, 119.412 88.649, 121.750 87.951 C 125.455 86.846, 126 86.319, 126 83.842 C 126 80.382, 125.191 80.351, 117.500 83.519 M 138.309 82.947 C 128.613 87.349, 125.873 105.754, 133.555 114.883 C 137.382 119.431, 143.548 121.356, 152.454 120.785 C 156.564 120.521, 160.641 119.713, 161.512 118.990 C 163.480 117.357, 163.055 113.330, 160.976 113.917 C 160.164 114.147, 156.304 114.530, 152.397 114.769 C 142.433 115.379, 137 112.308, 137 106.066 C 137 104.076, 137.517 104, 151.113 104 L 165.226 104 164.843 97.228 C 164.400 89.383, 162.043 85.197, 156.619 82.623 C 152.018 80.440, 143.499 80.590, 138.309 82.947 M 181.309 82.947 C 171.613 87.349, 168.873 105.754, 176.555 114.883 C 180.382 119.431, 186.548 121.356, 195.454 120.785 C 199.564 120.521, 203.641 119.713, 204.512 118.990 C 206.480 117.357, 206.055 113.330, 203.976 113.917 C 203.164 114.147, 199.304 114.530, 195.397 114.769 C 185.433 115.379, 180 112.308, 180 106.066 C 180 104.076, 180.517 104, 194.113 104 L 208.226 104 207.843 97.228 C 207.400 89.383, 205.043 85.197, 199.619 82.623 C 195.018 80.440, 186.499 80.590, 181.309 82.947 M 228.669 83.364 C 224.292 85.580, 224 85.611, 224 83.864 C 224 82.400, 223.248 82, 220.500 82 L 217 82 217 101 L 217 120 221 120 L 225 120 225 105.523 C 225 91.355, 225.051 91.013, 227.394 89.477 C 230.477 87.457, 235.958 86.582, 240.356 87.407 C 245.121 88.301, 246 91.377, 246 107.149 L 246 120 249.500 120 L 253 120 253 105.468 C 253 89.035, 251.986 85.078, 247.128 82.566 C 242.548 80.198, 234.213 80.558, 228.669 83.364 M 362.250 82.119 C 359.490 82.916, 359 83.522, 359 86.136 C 359 88.683, 359.302 89.086, 360.750 88.474 C 361.712 88.067, 366.100 87.531, 370.500 87.282 C 379.866 86.753, 381.749 87.678, 382.654 93.253 L 383.262 97 374.651 97 C 360.473 97, 355 100.544, 355 109.728 C 355 116.883, 360.216 121.015, 369.200 120.978 C 372.223 120.966, 376.294 120.142, 378.675 119.061 C 382.159 117.478, 382.939 117.399, 383.393 118.583 C 383.697 119.374, 385.275 120, 386.969 120 L 390 120 389.998 105.750 C 389.997 89.354, 388.882 85.690, 383 82.752 C 379.136 80.821, 367.928 80.479, 362.250 82.119 M 434.539 82.936 C 431.105 84.725, 430.468 84.800, 429.740 83.500 C 429.278 82.675, 427.573 82, 425.950 82 L 423 82 423 101 L 423 120 426.500 120 L 430 120 430 105.520 L 430 91.041 433.960 89.020 C 439.218 86.338, 446.328 86.328, 449 89 C 450.816 90.816, 451 92.333, 451 105.500 L 451 120 455 120 L 459 120 458.994 106.750 C 458.986 85.618, 456.933 81.818, 445.201 81.216 C 439.908 80.945, 437.668 81.306, 434.539 82.936 M 399 85 C 399 87.667, 399.333 88, 402 88 L 405 88 405 104 L 405 120 408.500 120 L 412 120 412 101 L 412 82 405.500 82 L 399 82 399 85 M 141.364 88.170 C 138.899 89.363, 137 93.008, 137 96.547 C 137 98.995, 137.020 99, 147.500 99 L 158 99 158 95.073 C 158 89.760, 154.558 86.973, 148.115 87.068 C 145.577 87.105, 142.539 87.601, 141.364 88.170 M 184.364 88.170 C 181.899 89.363, 180 93.008, 180 96.547 C 180 98.995, 180.020 99, 190.500 99 L 201 99 201 95.073 C 201 89.760, 197.558 86.973, 191.115 87.068 C 188.577 87.105, 185.539 87.601, 184.364 88.170 M 365 104.288 C 363.268 105.159, 362.405 106.519, 362.191 108.711 C 361.749 113.244, 365.304 115.417, 372.091 114.765 C 378.810 114.120, 382.407 111.397, 382.810 106.651 L 383.121 103 375.310 103.015 C 371.015 103.023, 366.375 103.596, 365 104.288" stroke="none" fill="#4c7464" fill-rule="evenodd"/></svg>